<svg width="20" height="20" viewBox="0 0 20 20" fill="none" xmlns="http://www.w3.org/2000/svg">
<mask id="mask0_1576_2599" style="mask-type:alpha" maskUnits="userSpaceOnUse" x="1" y="1" width="18" height="18">
<path d="M2.36113 8.61026C2.17693 8.61026 2.00029 8.53709 1.87004 8.40685C1.7398 8.2766 1.66663 8.09995 1.66663 7.91576V2.36113C1.66663 2.17693 1.7398 2.00029 1.87004 1.87004C2.00029 1.7398 2.17693 1.66663 2.36113 1.66663H7.91715C8.10134 1.66663 8.27799 1.7398 8.40824 1.87004C8.53848 2.00029 8.61165 2.17693 8.61165 2.36113V7.91576C8.61165 8.09995 8.53848 8.2766 8.40824 8.40685C8.27799 8.53709 8.10134 8.61026 7.91715 8.61026H2.36113ZM12.0842 8.61026C11.9 8.61026 11.7233 8.53709 11.5931 8.40685C11.4628 8.2766 11.3897 8.09995 11.3897 7.91576V2.36113C11.3897 2.17693 11.4628 2.00029 11.5931 1.87004C11.7233 1.7398 11.9 1.66663 12.0842 1.66663H17.6388C17.823 1.66663 17.9996 1.7398 18.1299 1.87004C18.2601 2.00029 18.3333 2.17693 18.3333 2.36113V7.91576C18.3333 8.09995 18.2601 8.2766 18.1299 8.40685C17.9996 8.53709 17.823 8.61026 17.6388 8.61026H12.0842ZM2.36113 18.3333C2.17693 18.3333 2.00029 18.2601 1.87004 18.1299C1.7398 17.9996 1.66663 17.823 1.66663 17.6388V12.0828C1.66663 11.8986 1.7398 11.7219 1.87004 11.5917C2.00029 11.4614 2.17693 11.3883 2.36113 11.3883H7.91715C8.10134 11.3883 8.27799 11.4614 8.40824 11.5917C8.53848 11.7219 8.61165 11.8986 8.61165 12.0828V17.6388C8.61165 17.823 8.53848 17.9996 8.40824 18.1299C8.27799 18.2601 8.10134 18.3333 7.91715 18.3333H2.36113ZM12.0842 18.3333C11.9 18.3333 11.7233 18.2601 11.5931 18.1299C11.4628 17.9996 11.3897 17.823 11.3897 17.6388V12.0828C11.3897 11.8986 11.4628 11.7219 11.5931 11.5917C11.7233 11.4614 11.9 11.3883 12.0842 11.3883H17.6388C17.823 11.3883 17.9996 11.4614 18.1299 11.5917C18.2601 11.7219 18.3333 11.8986 18.3333 12.0828V17.6388C18.3333 17.823 18.2601 17.9996 18.1299 18.1299C17.9996 18.2601 17.823 18.3333 17.6388 18.3333H12.0842Z" fill="black"/>
</mask>
<g mask="url(#mask0_1576_2599)">
<rect y="-0.00109863" width="20" height="20" fill="#D4D6DD"/>
</g>
</svg>
