<svg width="16" height="16" viewBox="0 0 16 16" fill="none" xmlns="http://www.w3.org/2000/svg">
<mask id="mask0_1576_2731" style="mask-type:alpha" maskUnits="userSpaceOnUse" x="0" y="0" width="16" height="16">
<path fill-rule="evenodd" clip-rule="evenodd" d="M6.42704 0.333344C3.06421 0.333344 0.333374 3.03774 0.333374 6.37957C0.333374 9.7214 3.06421 12.4258 6.42704 12.4258C7.68079 12.4258 8.84704 12.0498 9.81632 11.405L13.7917 15.3476C14.2206 15.773 14.9149 15.773 15.3439 15.3476C15.7743 14.9207 15.7743 14.2274 15.3439 13.8005L11.3939 9.88313C12.1032 8.89488 12.5207 7.68532 12.5207 6.37957C12.5207 3.03774 9.78988 0.333344 6.42704 0.333344ZM2.53121 6.37957C2.53121 4.24979 4.27283 2.51857 6.42704 2.51857C8.58126 2.51857 10.3229 4.24979 10.3229 6.37957C10.3229 8.50935 8.58126 10.2406 6.42704 10.2406C4.27283 10.2406 2.53121 8.50935 2.53121 6.37957Z" fill="#E86339"/>
</mask>
<g mask="url(#mask0_1576_2731)">
<rect width="16" height="16" fill="#2F3036"/>
</g>
</svg>
