<svg width="20" height="20" viewBox="0 0 20 20" fill="none" xmlns="http://www.w3.org/2000/svg">
<g clip-path="url(#clip0_1576_2594)">
<mask id="mask0_1576_2594" style="mask-type:alpha" maskUnits="userSpaceOnUse" x="0" y="0" width="20" height="20">
<path d="M11.25 10C11.25 10.6914 10.6914 11.25 10 11.25C9.30859 11.25 8.75 10.6914 8.75 10C8.75 9.30859 9.30859 8.75 10 8.75C10.6914 8.75 11.25 9.30859 11.25 10ZM0 10C0 4.47656 4.47656 0 10 0C15.5234 0 20 4.47656 20 10C20 15.5234 15.5234 20 10 20C4.47656 20 0 15.5234 0 10ZM12.6992 11.9805L14.8672 6.34375C15.1602 5.55078 14.4141 4.83984 13.6562 5.13281L8.01953 7.30078C7.6875 7.42578 7.42578 7.6875 7.30078 8.01953L5.13281 13.6562C4.83984 14.4141 5.55078 15.1602 6.34375 14.8672L11.9805 12.6992C12.3125 12.5742 12.5742 12.3125 12.6992 11.9805Z" fill="black"/>
</mask>
<g mask="url(#mask0_1576_2594)">
<rect y="-0.00109863" width="20" height="20" fill="#E86339"/>
</g>
</g>
<defs>
<clipPath id="clip0_1576_2594">
<rect width="20" height="20" fill="white"/>
</clipPath>
</defs>
</svg>
