<svg width="20" height="20" viewBox="0 0 20 20" fill="none" xmlns="http://www.w3.org/2000/svg">
<mask id="mask0_1576_2604" style="mask-type:alpha" maskUnits="userSpaceOnUse" x="0" y="0" width="20" height="19">
<path d="M10 7.38062C8.30625 7.38062 6.875 8.81186 6.875 10.5056C6.875 12.1994 8.30625 13.6306 10 13.6306C11.6937 13.6306 13.125 12.1994 13.125 10.5056C13.125 8.81186 11.6937 7.38062 10 7.38062Z" fill="#E86339"/>
<path d="M18 3.50562H15.414L12.707 0.798616C12.6143 0.705574 12.5041 0.631786 12.3828 0.581501C12.2614 0.531215 12.1313 0.505426 12 0.505616H8C7.86866 0.505426 7.73857 0.531215 7.61724 0.581501C7.4959 0.631786 7.38571 0.705574 7.293 0.798616L4.586 3.50562H2C0.897 3.50562 0 4.40262 0 5.50562V16.5056C0 17.6086 0.897 18.5056 2 18.5056H18C19.103 18.5056 20 17.6086 20 16.5056V5.50562C20 4.40262 19.103 3.50562 18 3.50562ZM10 15.5056C7.29 15.5056 5 13.2156 5 10.5056C5 7.79562 7.29 5.50562 10 5.50562C12.71 5.50562 15 7.79562 15 10.5056C15 13.2156 12.71 15.5056 10 15.5056Z" fill="#E86339"/>
</mask>
<g mask="url(#mask0_1576_2604)">
<rect width="20" height="20" fill="#D4D6DD"/>
</g>
</svg>
